<?xml version="1.0" encoding="UTF-8"?>
<svg width="28px" height="28px" viewBox="0 0 28 28" version="1.1" xmlns="http://www.w3.org/2000/svg" xmlns:xlink="http://www.w3.org/1999/xlink">
    <title>behance-logo</title>
    <defs>
        <polygon id="path-1" points="0 0 27.9996 0 27.9996 27.9997 0 27.9997"></polygon>
    </defs>
    <g id="Web" stroke="none" stroke-width="1" fill="none" fill-rule="evenodd" opacity="0.6">
        <g id="Home-Desktop" transform="translate(-808.000000, -4776.000000)">
            <g id="CONTACT" transform="translate(604.000000, 4776.000000)">
                <g id="behance-logo" transform="translate(204.000000, 0.000000)">
                    <path d="M11.2677,11.0937 C11.2677,9.7727 10.3687,9.7727 10.3687,9.7727 L9.8927,9.7727 L6.6717,9.7727 L6.6717,12.6067 L10.1397,12.6067 C10.7387,12.6067 11.2677,12.4147 11.2677,11.0937" id="Fill-1" fill="#838383"></path>
                    <path d="M10.3692,14.5644963 L6.6722,14.5644963 L6.6722,17.9595 L10.1982,17.9595 C10.7292,17.9435 11.7082,17.7775 11.7082,16.3085 C11.7082,14.5465 10.3692,14.5644963 10.3692,14.5644963" id="Fill-3" fill="#838383"></path>
                    <path d="M19.8336,12.6069 C17.8716,12.6069 17.5986,14.5649 17.5986,14.5649 L21.7706154,14.5649 C21.7706154,14.5649 21.7956,12.6069 19.8336,12.6069" id="Fill-5" fill="#838383"></path>
                    <g id="Group-9">
                        <mask id="mask-2" fill="white">
                            <use xlink:href="#path-1"></use>
                        </mask>
                        <g id="Clip-8"></g>
                        <path d="M19.859,18.4697 C21.97,18.4697 21.895,17.1037 21.895,17.1037 L24.13,17.1037 C24.13,20.7297 19.785,20.4817 19.785,20.4817 C14.569,20.4817 14.904,15.6257 14.904,15.6257 C14.904,15.6257 14.901,10.7467 19.784,10.7467 C24.924,10.7467 24.205,16.2587 24.205,16.2587 L17.624,16.2587 C17.624,18.6187 19.859,18.4697 19.859,18.4697 L19.859,18.4697 Z M14.403,16.4667 C14.403,20.3427 10.369,20.2157 10.369,20.2157 L6.672,20.2157 L6.564,20.2157 L3.76,20.2157 L3.76,7.5147 L6.564,7.5147 L6.672,7.5147 L10.369,7.5147 C12.378,7.5147 13.963,8.6237 13.963,10.8967 C13.963,13.1697 12.025,13.3137 12.025,13.3137 C14.58,13.3137 14.403,16.4667 14.403,16.4667 L14.403,16.4667 Z M17.052,9.8267 L22.292,9.8267 L22.292,8.2627 L17.052,8.2627 L17.052,9.8267 Z M14,-0.0003 C6.268,-0.0003 0,6.2677 0,13.9997 C0,21.7317 6.268,27.9997 14,27.9997 C21.732,27.9997 28,21.7317 28,13.9997 C28,6.2677 21.732,-0.0003 14,-0.0003 L14,-0.0003 Z" id="Fill-7" fill="#838383" mask="url(#mask-2)"></path>
                    </g>
                </g>
            </g>
        </g>
    </g>
</svg>