<?xml version="1.0" encoding="UTF-8"?>
<svg width="30px" height="31px" viewBox="0 0 30 31" version="1.1" xmlns="http://www.w3.org/2000/svg" xmlns:xlink="http://www.w3.org/1999/xlink">
    <title>Close icon</title>
    <g id="Web" stroke="none" stroke-width="1" fill="none" fill-rule="evenodd">
        <g id="Home-Mobile" transform="translate(-342.000000, -12.000000)" fill="#FFFFFF">
            <g id="Menu" transform="translate(0.000000, -0.000000)">
                <g id="Close-icon" transform="translate(357.029142, 27.538182) rotate(-315.000000) translate(-357.029142, -27.538182) translate(346.495689, 17.004729)">
                    <path d="M10.5334527,3.5971226e-14 C10.9643761,3.55271368e-14 11.3137085,0.349332402 11.3137085,0.780255759 L11.3137085,0.780255759 L11.313,9.753 L20.2866497,9.75319698 C20.7175731,9.75319698 21.0669055,10.1025294 21.0669055,10.5334527 C21.0669055,10.9643761 20.7175731,11.3137085 20.2866497,11.3137085 L11.313,11.313 L11.3137085,20.2866497 C11.3137085,20.6816628 11.0201722,21.0081168 10.6393288,21.0597827 L10.5334527,21.0669055 C10.1025294,21.0669055 9.75319698,20.7175731 9.75319698,20.2866497 L9.75319698,20.2866497 L9.753,11.313 L0.780255759,11.3137085 C0.349332402,11.3137085 -2.2226665e-13,10.9643761 -2.2226665e-13,10.5334527 C-2.2226665e-13,10.1025294 0.349332402,9.75319698 0.780255759,9.75319698 L9.753,9.753 L9.75319698,0.780255759 C9.75319698,0.385242682 10.0467332,0.0587886709 10.4275767,0.00712281541 Z" id="Combined-Shape"></path>
                </g>
            </g>
        </g>
    </g>
</svg>