<?xml version="1.0" encoding="UTF-8"?>
<svg width="28px" height="28px" viewBox="0 0 28 28" version="1.1" xmlns="http://www.w3.org/2000/svg" xmlns:xlink="http://www.w3.org/1999/xlink">
    <title>Git logo</title>
    <g id="Page-1" stroke="none" stroke-width="1" fill="none" fill-rule="evenodd" opacity="0.6">
        <g id="Home-Desktop" transform="translate(-800.000000, -4818.000000)" fill="#838383">
            <g id="Footer" transform="translate(604.000000, 4776.000000)">
                <g id="GyD" transform="translate(7.000000, 42.000000)">
                    <g id="Brand" transform="translate(189.000000, 0.000000)">
                        <path d="M0,14.3547041 C0,20.697689 4.011,26.0771143 9.576,27.975524 C10.276,28.108305 10.5315,27.6633091 10.5315,27.2847038 C10.5315,26.9437796 10.51925,26.0394332 10.51225,24.8426098 C6.6185,25.709275 5.796,22.9172851 5.796,22.9172851 C5.159,21.2593168 4.242,20.8179096 4.242,20.8179096 C2.96975,19.927918 4.33825,19.9458613 4.33825,19.9458613 C5.7435,20.0463443 6.482,21.4243959 6.482,21.4243959 C7.7315,23.6188713 9.75975,22.9854699 10.556,22.6176306 C10.68375,21.6899579 11.046,21.0565566 11.445,20.6994833 C8.337,20.3352327 5.068,19.1043168 5.068,13.6046708 C5.068,12.0364194 5.614,10.755262 6.51,9.7522271 C6.3665,9.38797648 5.88525,7.92917968 6.6465,5.95361353 C6.6465,5.95361353 7.8225,5.56783085 10.4965,7.4249707 C11.613,7.10557853 12.81175,6.94767678 14.00175,6.94229377 C15.19,6.94767678 16.38875,7.10557853 17.507,7.4249707 C20.17925,5.56783085 21.3535,5.95361353 21.3535,5.95361353 C22.1165,7.92917968 21.63525,9.38797648 21.49175,9.7522271 C22.3895,10.755262 22.932,12.0364194 22.932,13.6046708 C22.932,19.1186715 19.65775,20.331644 16.53925,20.6869229 C17.0415,21.1301244 17.4895,22.0075557 17.4895,23.3461319 C17.4895,25.2642792 17.472,26.8127929 17.472,27.2847038 C17.472,27.6668978 17.724,28.113688 18.4345,27.9737296 C23.9925,26.0717313 28,20.6958946 28,14.3547041 C28,6.42731876 21.7315,0 14,0 C6.27025,0 0,6.42731876 0,14.3547041 Z" id="Fill-1"></path>
                    </g>
                </g>
            </g>
        </g>
    </g>
</svg>